<?xml version="1.0" standalone="no"?>
<!DOCTYPE svg PUBLIC "-//W3C//DTD SVG 20010904//EN"
 "http://www.w3.org/TR/2001/REC-SVG-20010904/DTD/svg10.dtd">
<svg version="1.0" xmlns="http://www.w3.org/2000/svg"
 width="500.000000pt" height="500.000000pt" viewBox="0 0 500.000000 500.000000"
 preserveAspectRatio="xMidYMid meet">

<g transform="translate(0.000000,500.000000) scale(0.100000,-0.100000)"
fill="#000000" stroke="none">
<path d="M1510 3429 c-359 -31 -654 -266 -778 -619 -46 -134 -57 -208 -56
-385 1 -138 5 -173 27 -257 79 -297 280 -539 540 -646 156 -65 381 -85 552
-48 118 25 267 102 353 181 38 36 72 62 76 58 3 -3 6 -51 6 -105 l0 -98 315 0
314 0 3 100 3 100 74 -55 c234 -177 539 -240 865 -179 146 28 376 115 376 142
0 4 -48 106 -106 228 l-107 221 -41 -23 c-130 -72 -327 -83 -452 -25 -38 18
-90 54 -125 87 -187 179 -194 475 -14 663 121 127 283 169 470 121 43 -11 97
-31 120 -44 l41 -25 110 220 c106 215 109 221 89 236 -65 49 -201 100 -352
133 -110 24 -321 29 -435 11 -147 -24 -322 -102 -453 -201 l-65 -49 0 104 0
105 -320 0 -320 0 0 -85 c0 -47 -2 -85 -4 -85 -3 0 -35 23 -72 50 -124 95
-272 154 -414 165 -36 3 -81 7 -100 9 -19 2 -73 0 -120 -5z m427 -566 c57 -16
152 -80 197 -134 16 -19 43 -63 60 -99 29 -61 31 -72 31 -185 0 -117 -1 -122
-36 -196 -87 -183 -261 -272 -469 -241 -147 21 -255 99 -316 227 -62 129 -63
289 -4 412 36 74 131 165 206 200 94 43 215 49 331 16z"/>
</g>
</svg>
