<?xml version="1.0" standalone="no"?>
<!DOCTYPE svg PUBLIC "-//W3C//DTD SVG 20010904//EN"
 "http://www.w3.org/TR/2001/REC-SVG-20010904/DTD/svg10.dtd">
<svg version="1.0" xmlns="http://www.w3.org/2000/svg"
 width="476.000000pt" height="424.000000pt" viewBox="0 0 476.000000 424.000000"
 preserveAspectRatio="xMidYMid meet">

<g transform="translate(0.000000,424.000000) scale(0.100000,-0.100000)"
fill="#000000" stroke="none">
<path d="M2185 3699 c-133 -13 -322 -52 -436 -89 -149 -49 -400 -178 -519
-266 -132 -97 -305 -271 -393 -393 -80 -112 -173 -297 -221 -436 -143 -418
-95 -864 137 -1275 68 -122 137 -210 262 -336 139 -139 272 -238 439 -325 274
-142 502 -203 836 -224 198 -12 496 28 701 95 146 48 400 178 520 266 128 95
303 269 389 389 121 167 246 455 279 640 34 189 32 405 -4 580 -43 207 -152
460 -271 626 -80 112 -267 300 -388 389 -175 129 -435 251 -647 304 -208 52
-486 74 -684 55z m429 -104 c137 -18 312 -62 421 -105 194 -77 408 -203 541
-319 70 -62 217 -229 270 -307 192 -287 288 -642 255 -952 -48 -464 -268 -840
-661 -1128 -163 -120 -448 -246 -655 -290 -544 -115 -1096 0 -1525 320 -265
197 -477 497 -564 799 -48 164 -60 251 -60 422 1 241 47 430 159 656 69 139
133 232 242 350 123 135 248 237 389 316 83 47 271 134 338 157 248 84 582
116 850 81z"/>
<path d="M1170 2525 l0 -605 185 0 185 0 0 515 0 515 330 0 330 0 0 -140 0
-140 -305 -2 -305 -3 315 -358 315 -358 0 -535 0 -534 665 0 665 0 0 375 0
375 -55 0 -55 0 0 230 0 230 -454 0 -455 0 -39 43 c-86 92 -302 342 -302 350
0 4 83 7 185 7 l185 0 0 320 0 320 -695 0 -695 0 0 -605z m2020 -755 l0 -140
-305 0 -305 0 0 140 0 140 305 0 305 0 0 -140z m0 -515 l0 -195 -305 0 -305 0
0 195 0 195 305 0 305 0 0 -195z"/>
</g>
</svg>
